<svg xmlns="http://www.w3.org/2000/svg" xmlns:xlink="http://www.w3.org/1999/xlink" preserveAspectRatio="xMidYMid" width="40" height="40" viewBox="0 0 40 40">
  <defs>
    <style>
      .cls-1 {
        fill: #0099e5;
        fill-rule: evenodd;
      }
    </style>
  </defs>
  <path d="M20.000,40.000 C8.949,40.000 0.000,31.044 0.000,20.000 C0.000,8.956 8.949,0.000 20.000,0.000 C31.044,0.000 40.000,8.956 40.000,20.000 C40.000,31.044 31.044,40.000 20.000,40.000 ZM20.000,2.000 C10.054,2.000 2.000,10.061 2.000,20.000 C2.000,29.940 10.054,38.000 20.000,38.000 C29.940,38.000 38.000,29.940 38.000,20.000 C38.000,10.061 29.940,2.000 20.000,2.000 ZM21.000,31.000 L19.000,31.000 L19.000,21.000 L9.000,21.000 L9.000,19.000 L19.000,19.000 L19.000,9.000 L21.000,9.000 L21.000,19.000 L31.000,19.000 L31.000,21.000 L21.000,21.000 L21.000,31.000 Z" class="cls-1"/>
</svg>
