<?xml version="1.0" encoding="utf-8"?>
<!-- Generator: Adobe Illustrator 16.0.0, SVG Export Plug-In . SVG Version: 6.00 Build 0)  -->
<!DOCTYPE svg PUBLIC "-//W3C//DTD SVG 1.1//EN" "http://www.w3.org/Graphics/SVG/1.1/DTD/svg11.dtd">
<svg version="1.1" id="Layer_1" xmlns="http://www.w3.org/2000/svg" xmlns:xlink="http://www.w3.org/1999/xlink" x="0px" y="0px"
	 width="72px" height="72px" viewBox="0 0 72 72" enable-background="new 0 0 72 72" xml:space="preserve">
<path fill="#1EABE3" d="M70.354,10.942l0.009-0.015l0,0c0.565-0.987,0.916-2.103,0.916-3.308c0-3.811-3.216-6.899-7.183-6.899
	c-2.297,0-4.312,1.052-5.628,2.661l-0.006-0.003L58.44,3.415c-0.365,0.449-0.687,0.928-0.928,1.457L27.634,51.891L13.878,35.751
	l-0.001,0.002c-1.289-1.852-3.481-3.07-5.973-3.07c-3.966,0-7.184,3.089-7.184,6.897c0,1.936,0.834,3.678,2.171,4.932l18.264,23.612
	h0.006c1.279,1.896,3.493,3.155,6.02,3.155c2.995,0,5.561-1.766,6.635-4.27l36.046-55.311
	C70.048,11.459,70.203,11.206,70.354,10.942z"/>
</svg>
