<?xml version="1.0" encoding="UTF-8"?>
<svg width="16px" height="16px" viewBox="0 0 16 16" version="1.1" xmlns="http://www.w3.org/2000/svg" xmlns:xlink="http://www.w3.org/1999/xlink">
    <!-- Generator: Sketch 52.6 (67491) - http://www.bohemiancoding.com/sketch -->
    <title>形状@3x</title>
    <desc>Created with Sketch.</desc>
    <g id="视频" stroke="none" stroke-width="1" fill="none" fill-rule="evenodd">
        <g id="382-个人中心-视频-看自己" transform="translate(-645.000000, -1084.000000)" fill="#FFFFFF" fill-rule="nonzero">
            <g id="分组-copy" transform="translate(632.000000, 1084.000000)">
                <g id="dengdai" transform="translate(13.000000, 0.000000)">
                    <path d="M14.579625,0.0421491658 L1.41134375,0.0421491658 L14.579625,0.0421491658 Z M7.99614062,15.9861511 C5.860125,15.9861511 3.85185938,15.1558155 2.34173438,13.6486438 C0.831421875,12.1397763 -3.125e-05,10.1346418 0.000328125,8.00117763 C0.000328125,5.86794897 0.832296875,3.86250049 2.34295312,2.35416683 C3.853,0.846555447 5.86128125,0.016047105 7.99753125,0.016047105 C10.1345156,0.016047105 12.1425312,0.846476938 13.6531875,2.35418253 C16.7712812,5.46843572 16.7709531,10.5342022 13.6531875,13.6472306 C12.1421875,15.1552188 10.1330312,15.9861511 7.99615625,15.9861511 L7.99614062,15.9861511 Z M7.997625,1.05675368 C6.13940625,1.05675368 4.393375,1.77876349 3.0795,3.09007262 C1.76585938,4.40103631 1.04240625,6.14572718 1.04240625,8.00120903 C1.0420625,9.8569578 1.76517188,11.6012875 3.07839063,12.9128479 C4.39179688,14.2236703 6.13853125,14.946371 7.996125,14.946371 C9.85460937,14.946371 11.6021563,14.2230422 12.9161563,12.9113719 C15.6275937,10.2041845 15.6275937,5.79820216 12.9161563,3.09008832 C11.6025,1.77874779 9.85576563,1.05675368 7.997625,1.05675368 Z M11.1129375,8.63937193 L7.729375,8.63937193 L7.729375,5.23919136 C7.729375,4.86329342 7.42665625,4.559105 7.05260938,4.559105 C6.67854687,4.559105 6.37592188,4.86330913 6.37592188,5.23919136 L6.37592188,9.31942689 C6.37592188,9.69524632 6.67854687,9.99946614 7.05260938,9.99946614 L11.1129219,9.99946614 C11.4869844,9.99946614 11.7897031,9.69524632 11.7897031,9.31942689 C11.7897188,8.94356035 11.4868906,8.63938763 11.1129531,8.63938763 L11.1129375,8.63937193 Z" id="形状"></path>
                </g>
            </g>
        </g>
    </g>
</svg>