<?xml version="1.0" encoding="UTF-8"?>
<svg width="8px" height="6px" viewBox="0 0 8 6" version="1.1" xmlns="http://www.w3.org/2000/svg" xmlns:xlink="http://www.w3.org/1999/xlink">
    <!-- Generator: Sketch 41.2 (35397) - http://www.bohemiancoding.com/sketch -->
    <title>Group 3</title>
    <desc>Created with Sketch.</desc>
    <defs>
        <polygon id="path-1" points="0.0168621842 6.01334672 7.31381083 6.01334672 7.31381083 0.0617773238 0.0168621842 0.0617773238 0.0168621842 6.01334672"></polygon>
    </defs>
    <g id="Symbols" stroke="none" stroke-width="1" fill="none" fill-rule="evenodd">
        <g id="已关注" transform="translate(-10.000000, -9.000000)">
            <g id="Group-11">
                <g id="Group-3" transform="translate(10.000000, 9.000000)">
                    <mask id="mask-2" fill="white">
                        <use xlink:href="#path-1"></use>
                    </mask>
                    <g id="Clip-2"></g>
                    <path d="M6.32800812,0.252372645 L2.51160063,4.56450599 L1.00406478,2.86028595 C0.779863729,2.60547038 0.415121218,2.60415496 0.189589598,2.85746719 C0.18859167,2.85840678 0.187760064,2.85953428 0.186762136,2.86028595 C-0.0387694843,3.1137861 -0.0399337331,3.52570035 0.184267317,3.78070383 C0.185098924,3.78183134 0.18593053,3.78277092 0.186762136,3.78371051 L1.99301096,5.82430213 C2.1130949,5.96016618 2.33213999,6.02123924 2.51243223,6.01259505 C2.69172655,6.02123924 2.9081105,5.9592266 3.02902605,5.82430213 L7.14531077,1.1746697 C7.3701771,0.91929038 7.3701771,0.506812378 7.14531077,0.25143306 C6.91878122,-0.00187917085 6.55387239,-0.00131541959 6.32800812,0.252372645" id="Fill-1" fill="#FFFFFF" mask="url(#mask-2)"></path>
                </g>
            </g>
        </g>
    </g>
</svg>