<svg xmlns="http://www.w3.org/2000/svg" xmlns:xlink="http://www.w3.org/1999/xlink" preserveAspectRatio="xMidYMid" width="54" height="54" viewBox="0 0 54 54">
  <defs>
    <style>
      .cls-1 {
        fill: #b9c1c7;
        fill-rule: evenodd;
      }
    </style>
  </defs>
  <path d="M51.000,54.000 L13.000,54.000 C11.343,54.000 10.000,52.657 10.000,51.000 L49.000,51.000 C50.020,50.949 51.000,50.657 51.000,49.000 L51.000,10.000 C52.657,10.000 54.000,11.343 54.000,13.000 L54.000,51.000 C54.000,52.657 52.657,54.000 51.000,54.000 ZM46.000,49.000 L8.000,49.000 C6.343,49.000 5.000,47.657 5.000,46.000 L44.000,46.000 C45.020,45.949 46.000,45.657 46.000,44.000 L46.000,5.000 C47.657,5.000 49.000,6.343 49.000,8.000 L49.000,46.000 C49.000,47.657 47.657,49.000 46.000,49.000 ZM44.000,41.000 C44.000,42.657 42.657,44.000 41.000,44.000 L3.000,44.000 C1.343,44.000 -0.000,42.657 -0.000,41.000 L-0.000,21.000 L0.000,21.000 L0.000,3.000 C0.000,1.343 1.344,-0.000 3.000,-0.000 L41.000,-0.000 C42.657,-0.000 44.000,1.343 44.000,3.000 L44.000,23.000 L44.000,23.000 L44.000,41.000 ZM41.000,5.000 C41.000,3.896 40.104,3.000 39.000,3.000 L22.000,3.000 L22.000,3.000 L5.000,3.000 C3.896,3.000 3.000,3.895 3.000,5.000 L3.000,39.000 C3.000,40.104 3.896,41.000 5.000,41.000 L22.000,41.000 L22.000,41.000 L39.000,41.000 C40.104,41.000 41.000,40.105 41.000,39.000 L41.000,5.000 Z" class="cls-1"/>
</svg>
