<svg xmlns="http://www.w3.org/2000/svg" width="33" height="33" viewBox="0 0 33 33">
    <g fill="none" fill-rule="evenodd" transform="rotate(-180 16.5 16.5)">
        <rect width="33" height="33" fill="#222" fill-opacity=".3" rx="8"/>
        <g fill="#EEEFF2" fill-rule="nonzero">
            <path d="M5.494 19.783h6.143l-5.81 5.81a1.09 1.09 0 0 0 0 1.55 1.09 1.09 0 0 0 1.551 0l5.81-5.81v6.143c0 .609.49 1.1 1.098 1.1.609 0 1.1-.491 1.1-1.1v-8.792c0-.608-.491-1.099-1.1-1.099H5.494c-.608 0-1.099.49-1.099 1.1 0 .608.49 1.098 1.1 1.098zM17.723 14.738c.117.274.333.49.588.588.138.06.275.079.413.079h8.792c.608 0 1.099-.49 1.099-1.1 0-.607-.49-1.098-1.1-1.098h-6.142l5.81-5.81a1.09 1.09 0 0 0-.786-1.864c-.294 0-.569.098-.785.314l-5.809 5.81V5.513c0-.609-.49-1.1-1.1-1.1-.607 0-1.098.491-1.098 1.1v8.792c.04.157.059.314.118.432z"/>
        </g>
    </g>
</svg>
