<svg xmlns="http://www.w3.org/2000/svg" width="34" height="34" viewBox="0 0 34 34">
    <g fill="none" fill-rule="evenodd" transform="rotate(-180 16.865 16.752)">
        <rect width="33" height="33" fill="#222" fill-opacity=".3" rx="8"/>
        <g fill="#EEEFF2" fill-rule="nonzero">
            <path d="M15.386 25.277H9.244l5.809-5.809a1.09 1.09 0 0 0 0-1.55 1.09 1.09 0 0 0-1.55 0l-5.81 5.81v-6.144c0-.608-.49-1.099-1.099-1.099-.608 0-1.099.49-1.099 1.1v8.791c0 .609.49 1.1 1.1 1.1h8.791c.609 0 1.1-.491 1.1-1.1 0-.608-.491-1.099-1.1-1.099zM27.397 6.182a1.082 1.082 0 0 0-.589-.589 1.025 1.025 0 0 0-.412-.078h-8.792c-.608 0-1.1.49-1.1 1.099 0 .608.492 1.099 1.1 1.099h6.143l-5.81 5.809a1.09 1.09 0 0 0 .786 1.864c.294 0 .569-.098.785-.314l5.809-5.809v6.143c0 .608.49 1.099 1.099 1.099.608 0 1.099-.49 1.099-1.1V6.615c-.04-.157-.06-.314-.118-.432z"/>
        </g>
    </g>
</svg>
