<?xml version="1.0" encoding="UTF-8"?>
<svg width="10px" height="10px" viewBox="0 0 9 9" version="1.1" xmlns="http://www.w3.org/2000/svg" xmlns:xlink="http://www.w3.org/1999/xlink">
    <!-- Generator: Sketch 41.2 (35397) - http://www.bohemiancoding.com/sketch -->
    <title>Fill 4</title>
    <desc>Created with Sketch.</desc>
    <defs></defs>
    <g id="Symbols" stroke="none" stroke-width="1" fill="none" fill-rule="evenodd">
        <g id="加关注" transform="translate(-10.000000, -8.000000)" fill="#0099E5">
            <g id="Group-12">
                <path d="M17.7451958,11.502962 L14.8609544,11.502962 L14.8609544,8.6566274 C14.8609544,8.2940491 14.5653159,8 14.2007777,8 C13.8362395,8 13.540601,8.2940491 13.540601,8.6566274 L13.540601,11.502962 L10.6601767,11.502962 C10.2956386,11.502962 10,11.7970111 10,12.1595894 C10,12.5221677 10.2956386,12.8160269 10.6601767,12.8160269 L13.540601,12.8160269 L13.540601,15.703555 C13.540601,16.0661333 13.8362395,16.3601824 14.2007777,16.3601824 C14.5653159,16.3601824 14.8609544,16.0661333 14.8609544,15.703555 L14.8609544,12.8160269 L17.7451958,12.8160269 C18.109734,12.8160269 18.4053725,12.5221677 18.4053725,12.1595894 C18.4053725,11.7970111 18.109734,11.502962 17.7451958,11.502962" id="Fill-4"></path>
            </g>
        </g>
    </g>
</svg>