<svg width="67px" height="28px" viewBox="0 0 67 28" version="1.1" xmlns="http://www.w3.org/2000/svg">
    <title>logo</title>
    <g id="首页" stroke="none" stroke-width="1" fill="none" fill-rule="evenodd">
        <g id="首页瀑布流" transform="translate(-59.000000, -11.000000)" fill="#222222">
            <g id="nav/main-tab-1366">
                <g id="Group-16">
                    <g id="编组" transform="translate(59.000000, 11.000000)">
                        <g id="logo/500px-nav">
                            <path d="M63.2101936,4.39225842 L66.2105325,1.39191942 C66.31938,1.28293927 66.5746404,1.02741334 66.0581462,0.495786672 C65.8367346,0.267738077 65.6348359,0.151324446 65.4582908,0.149997039 L65.455105,0.149997039 C65.3031168,0.149997039 65.200641,0.231499854 65.1205983,0.311542522 L62.1130913,3.31904952 L59.1106285,0.298002966 C58.8679784,0.0552201487 58.5836477,0.112033186 58.217416,0.477866672 C57.8448128,0.852461046 57.7838848,1.14011023 58.0254729,1.38315853 L61.0284667,4.40380686 L58.0874628,7.34507623 L58.0664898,7.3655183 C57.9949425,7.43480897 57.8867588,7.53954141 57.8855642,7.71024601 C57.884104,7.88639297 58.0013141,8.09360127 58.2340086,8.32642853 C58.4303322,8.52315031 58.6165674,8.62270587 58.7875375,8.62270587 L58.7876702,8.62270587 C58.9802771,8.62257313 59.1034605,8.49912424 59.1728839,8.42970083 L62.1249052,5.47728124 L65.1438279,8.49646942 C65.1819245,8.53456602 65.2882499,8.62204217 65.4588217,8.62204217 L65.4650605,8.62204217 C65.6560745,8.61965283 65.8569112,8.50894705 66.0625266,8.29311061 C66.401281,7.93736542 66.4578286,7.64095534 66.2304437,7.4121103 L63.2101936,4.39225842 Z M52.3711155,0.0821665194 C50.1477081,0.251278225 48.4061495,2.20694758 48.4061495,4.53415827 L48.4061495,11.8934378 C48.4061495,12.3196683 48.7301697,12.4068789 49.2166645,12.4068789 C49.7031593,12.4068789 50.0273122,12.3196683 50.0273122,11.8934378 L50.0273122,4.51690197 C50.0273122,3.06684211 51.0822029,1.82186669 52.428725,1.68235617 C53.2018071,1.60364091 53.944757,1.8453618 54.5228429,2.36676743 C55.0901769,2.87808477 55.4155244,3.61333574 55.4157899,4.38402849 C55.4157899,4.6046436 55.3080044,5.3230365 54.8148726,5.98979325 C54.4420038,6.49367711 53.7356903,7.09393074 52.4831487,7.09393074 C52.4765117,7.09406348 52.4672198,7.09393074 52.4595208,7.09393074 C52.1381555,7.09393074 51.8636477,7.10893045 51.8109496,7.87033134 C51.7755078,8.38271061 51.7784281,8.61168839 52.2209857,8.67328009 C53.0103949,8.78292394 53.8153348,8.62854646 54.6129739,8.21399712 C55.9750267,7.5052943 56.8874865,6.16262169 56.994741,4.70950879 C57.087925,3.44740981 56.6326243,2.21623943 55.7459161,1.33138964 C54.855624,0.443486819 53.6260465,-0.0112829631 52.3711155,0.0821665194 L52.3711155,0.0821665194 Z M6.33808629,4.95959235 C4.7449319,4.73088005 3.19146699,5.15472124 1.9260495,6.12864006 L1.9260495,1.7456735 L9.35329224,1.7456735 C9.61134025,1.7456735 9.79638084,1.69921424 9.79638084,0.93714964 C9.79638084,0.193668743 9.49678499,0.164067557 9.29913402,0.164067557 L1.07465038,0.164067557 C0.59718193,0.164067557 0.344443557,0.550343117 0.344443557,0.978697492 L0.344443557,8.17191831 C0.344443557,8.5491675 0.583642375,8.67699683 1.02858934,8.76500394 C1.41805068,8.84212632 1.64437365,8.79699446 1.81468002,8.60823713 L1.83260002,8.58062705 C2.61616862,7.45126882 4.32095797,6.35721962 5.94145695,6.55553429 C7.87575504,6.79221103 9.43320217,8.33518942 9.64625106,10.2243557 C9.78204484,11.4297743 9.41422025,12.5884683 8.61113876,13.4871231 C7.8182783,14.374495 6.68321222,14.883423 5.49757191,14.883423 C3.74101367,14.883423 2.20573424,13.7543302 1.56645483,12.115513 C1.47194342,11.8728629 1.31199083,11.6932647 0.620013338,11.9449412 C-0.015814817,12.1760428 -0.0525840025,12.4436481 0.0350248873,12.6859 C0.867309341,14.9778016 3.06244299,16.5175942 5.49730643,16.5175942 C7.14634467,16.5175942 8.72449935,15.8106171 9.82704395,14.577721 C10.9443228,13.3290289 11.4517906,11.7190164 11.2648917,10.0446247 C10.9719329,7.42339326 8.94299061,5.33246109 6.33808629,4.95959235 L6.33808629,4.95959235 Z M38.4497974,14.7761685 C34.8620807,14.7761685 31.9433772,11.857465 31.9433772,8.26988098 C31.9433772,4.6821642 34.8620807,1.76346076 38.4497974,1.76346076 C42.037116,1.76346076 44.955554,4.6821642 44.955554,8.26988098 C44.955554,11.857465 42.037116,14.7761685 38.4497974,14.7761685 L38.4497974,14.7761685 Z M38.4497974,0 C33.8894892,0 30.1795182,3.70983826 30.1795182,8.26988098 C30.1795182,12.8299237 33.8894892,16.5396292 38.4497974,16.5396292 C43.0097074,16.5396292 46.7196784,12.8299237 46.7196784,8.26988098 C46.7196784,3.70983826 43.0097074,0 38.4497974,0 L38.4497974,0 Z M20.5522304,14.7761685 C16.9646464,14.7761685 14.045943,11.857465 14.045943,8.26988098 C14.045943,4.6821642 16.9646464,1.76346076 20.5522304,1.76346076 C24.1396817,1.76346076 27.0581197,4.6821642 27.0581197,8.26988098 C27.0581197,11.857465 24.1396817,14.7761685 20.5522304,14.7761685 L20.5522304,14.7761685 Z M20.5522304,0 C15.9919222,0 12.2819512,3.70983826 12.2819512,8.26988098 C12.2819512,12.8299237 15.9919222,16.5396292 20.5522304,16.5396292 C25.1122732,16.5396292 28.8221114,12.8299237 28.8221114,8.26988098 C28.8221114,3.70983826 25.1122732,0 20.5522304,0 L20.5522304,0 Z" id="Fill-1"></path>
                        </g>
                        <path d="M1.97866667,21.7782817 L2.26986667,21.5766817 C2.13546667,21.3078817 1.82933333,20.919615 1.53066667,20.6433483 L1.26186667,20.8225483 C1.5456,21.1062817 1.84426667,21.5094817 1.97866667,21.7782817 Z M3.79306667,24.9665483 L3.79306667,21.3377483 L6.30933333,21.3377483 L6.30933333,24.9665483 L6.66773333,24.9665483 L6.66773333,21.009215 L3.44213333,21.009215 L3.44213333,24.9665483 L3.79306667,24.9665483 Z M1.88906667,27.393215 L1.88906667,24.0257483 C2.1728,24.369215 2.58346667,24.8769483 2.74773333,25.1009483 L2.98666667,24.817215 C2.83733333,24.638015 2.27733333,23.9958817 2.00106667,23.697215 C2.38186667,23.1894817 2.7104,22.6294817 2.92693333,22.0545483 L2.7328,21.9201483 L2.65813333,21.9350817 L0.522666667,21.9350817 L0.522666667,22.2710817 L2.47146667,22.2710817 C2.03093333,23.2865483 1.15733333,24.279615 0.3584,24.8545483 C0.418133333,24.9142817 0.5152,25.0710817 0.56,25.1681483 C0.888533333,24.9217483 1.22453333,24.6081483 1.5456,24.2497483 L1.5456,27.393215 L1.88906667,27.393215 Z M2.94186667,27.4006817 C4.24853333,26.721215 4.80853333,25.7953483 5.03253333,24.8769483 L5.03253333,26.7510817 C5.03253333,27.1617483 5.21173333,27.2737483 5.65973333,27.2737483 L6.44373333,27.2737483 C7.0112,27.2737483 7.0784,27.0049483 7.1456,25.825215 C7.04106667,25.7953483 6.92906667,25.758015 6.82453333,25.668415 C6.7872,26.788415 6.74986667,26.9825483 6.4512,26.9825483 L5.68213333,26.9825483 C5.43573333,26.9825483 5.376,26.9377483 5.376,26.7137483 L5.376,24.7873483 L5.05493333,24.7873483 C5.14453333,24.3841483 5.1744,23.9809483 5.1744,23.6001483 L5.1744,21.9873483 L4.83093333,21.9873483 L4.83093333,23.5926817 C4.83093333,24.772415 4.58453333,26.161215 2.71786667,27.124415 C2.79253333,27.1841483 2.90453333,27.3185483 2.94186667,27.4006817 Z M12.1528885,21.905215 L12.4664885,21.7782817 C12.3544885,21.4721483 12.0782219,21.009215 11.8168885,20.6657483 L11.5256885,20.7777483 C11.7795552,21.1286817 12.0483552,21.5990817 12.1528885,21.905215 Z M9.43502187,23.3985483 L9.43502187,22.330815 L14.8408885,22.330815 L14.8408885,23.3985483 L15.2067552,23.3985483 L15.2067552,22.0022817 L13.8104885,22.0022817 C14.0942219,21.6662817 14.4152885,21.233215 14.6616885,20.8598817 L14.3107552,20.7105483 C14.0942219,21.0913483 13.7134219,21.6438817 13.4072885,22.0022817 L9.07662187,22.0022817 L9.07662187,23.3985483 L9.43502187,23.3985483 Z M10.4131552,21.9873483 L10.7267552,21.8081483 C10.5624885,21.5318817 10.2264885,21.1137483 9.9203552,20.8225483 L9.6291552,20.9793483 C9.93528853,21.2854817 10.2638219,21.7110817 10.4131552,21.9873483 Z M14.2360885,25.8102817 L14.2360885,23.137215 L10.0174219,23.137215 L10.0174219,25.802815 L10.3907552,25.802815 L10.3907552,23.4806817 L13.8627552,23.4806817 L13.8627552,25.8102817 L14.2360885,25.8102817 Z M9.24088853,27.4230817 C12.0259552,26.654015 12.2723552,25.534015 12.2723552,24.6529483 L12.2723552,23.8241483 L11.9064885,23.8241483 L11.9064885,24.6454817 C11.9064885,25.4070817 11.7272885,26.430015 9.01688853,27.1318817 C9.09902187,27.214015 9.19608853,27.348415 9.24088853,27.4230817 Z M14.6766219,27.236415 C15.2067552,27.236415 15.3262219,27.0422817 15.3710219,26.206015 C15.2664885,26.183615 15.1246219,26.1313483 15.0424885,26.071615 C15.0126219,26.810815 14.9603552,26.9078817 14.6467552,26.9078817 L13.2654219,26.9078817 C12.8846219,26.9078817 12.8174219,26.8705483 12.8174219,26.698815 L12.8174219,25.2801483 L12.4590219,25.2801483 L12.4590219,26.6913483 C12.4590219,27.1318817 12.6307552,27.236415 13.2504885,27.236415 L14.6766219,27.236415 Z M20.6620437,27.3857483 L20.6620437,24.8918817 L23.0737771,24.8918817 L23.0737771,25.3473483 L23.4396437,25.3473483 L23.4396437,21.9873483 L20.6620437,21.9873483 L20.6620437,20.6358817 L20.2961771,20.6358817 L20.2961771,21.9873483 L17.5335104,21.9873483 L17.5335104,25.3846817 L17.8844437,25.3846817 L17.8844437,24.8918817 L20.2961771,24.8918817 L20.2961771,27.3857483 L20.6620437,27.3857483 Z M23.0737771,24.5409483 L20.6620437,24.5409483 L20.6620437,22.3382817 L23.0737771,22.3382817 L23.0737771,24.5409483 Z M20.2961771,24.5409483 L17.8844437,24.5409483 L17.8844437,22.3382817 L20.2961771,22.3382817 L20.2961771,24.5409483 Z M26.1919989,27.4081483 L26.1919989,27.0273483 L31.5605323,27.0273483 L31.5605323,27.4081483 L31.9338656,27.4081483 L31.9338656,20.9942817 L25.8335989,20.9942817 L25.8335989,27.4081483 L26.1919989,27.4081483 Z M31.5605323,26.6913483 L26.1919989,26.6913483 L26.1919989,21.3302817 L31.5605323,21.3302817 L31.5605323,26.6913483 Z M31.0229323,25.8401483 L31.0229323,25.5265483 L29.0143989,25.5265483 L29.0143989,24.0406817 L30.6570656,24.0406817 L30.6570656,23.7121483 L29.0143989,23.7121483 L29.0143989,22.4353483 L30.8511989,22.4353483 L30.8511989,22.106815 L26.9311989,22.106815 L26.9311989,22.4353483 L28.6783989,22.4353483 L28.6783989,23.7121483 L27.1551989,23.7121483 L27.1551989,24.0406817 L28.6783989,24.0406817 L28.6783989,25.5265483 L26.8117323,25.5265483 L26.8117323,25.8401483 L31.0229323,25.8401483 Z M30.4479989,25.332415 L30.6943989,25.1606817 C30.5301323,24.9142817 30.1717323,24.548415 29.8581323,24.279615 L29.6117323,24.4289483 C29.9253323,24.6902817 30.2762656,25.0710817 30.4479989,25.332415 Z M36.5006208,22.8833483 C36.7694208,22.5921483 37.0083541,22.2337483 37.2174208,21.8230817 L40.5027541,21.8230817 L40.5027541,21.502015 L37.3592875,21.502015 C37.4712875,21.2481483 37.5683541,20.9718817 37.6355541,20.695615 L37.3070208,20.628415 C37.0979541,21.4273483 36.7246208,22.1665483 36.2318208,22.6593483 C36.3139541,22.711615 36.4558208,22.823615 36.5006208,22.8833483 Z M35.2984875,21.8230817 L35.6270208,21.6737483 C35.5000875,21.3974817 35.2536875,20.9569483 35.0147541,20.6358817 L34.7160875,20.762815 C34.9326208,21.0913483 35.1939541,21.5318817 35.2984875,21.8230817 Z M34.1336875,27.4006817 C34.6936875,26.542015 34.8952875,25.198015 34.9699541,23.7270817 L35.9630208,23.7270817 C35.8883541,25.9222817 35.7987541,26.698815 35.6643541,26.878015 C35.6120875,26.9601483 35.5598208,26.9750817 35.4627541,26.967615 L35.3428521,26.9670926 C35.2198589,26.9657864 35.0446208,26.961215 34.8579541,26.945215 C34.9027541,27.034815 34.9400875,27.1766817 34.9475541,27.281215 C35.1864875,27.2961483 35.4328875,27.2961483 35.5747541,27.2886817 C35.7464875,27.2737483 35.8584875,27.2289483 35.9555541,27.102015 C36.1422208,26.8481483 36.2168875,26.0641483 36.2990208,23.5926817 C36.3064875,23.540415 36.3064875,23.3985483 36.3064875,23.3985483 L36.1272875,23.3985483 L34.9923541,23.3910817 C35.0072875,23.0102817 35.0147541,22.622015 35.0222208,22.2337483 L36.4110208,22.2337483 L36.4110208,21.8977483 L33.8872875,21.8977483 L33.8872875,22.2337483 L34.6936875,22.2337483 C34.6638208,24.1377483 34.5667541,26.1313483 33.8424875,27.1841483 C33.9395541,27.2289483 34.0739541,27.326015 34.1336875,27.4006817 Z M40.5774208,25.847615 L40.5774208,25.5265483 L39.7560875,25.5265483 L39.7560875,23.0550817 L40.3608875,23.0550817 L40.3608875,22.734015 L39.7560875,22.734015 L39.7560875,22.2113483 L39.4275541,22.2113483 L39.4275541,22.734015 L37.7326208,22.734015 L37.7326208,22.2113483 L37.4040875,22.2113483 L37.4040875,22.734015 L36.9411541,22.734015 L36.9411541,23.0550817 L37.4040875,23.0550817 L37.4040875,25.5265483 L36.5678208,25.5265483 L36.5678208,25.847615 L40.5774208,25.847615 Z M39.4275541,23.652415 L37.7326208,23.652415 L37.7326208,23.0550817 L39.4275541,23.0550817 L39.4275541,23.652415 Z M39.4275541,24.5782817 L37.7326208,24.5782817 L37.7326208,23.9361483 L39.4275541,23.9361483 L39.4275541,24.5782817 Z M39.4275541,25.5265483 L37.7326208,25.5265483 L37.7326208,24.862015 L39.4275541,24.862015 L39.4275541,25.5265483 Z M36.9187541,27.4230817 C37.3667541,27.1094817 37.8595541,26.6390817 38.1432875,26.1537483 L37.8147541,26.049215 C37.5534208,26.4897483 37.1054208,26.9078817 36.6499541,27.191615 C36.7395541,27.2438817 36.8664875,27.3633483 36.9187541,27.4230817 Z M40.1592875,27.415615 L40.4131541,27.191615 C40.1592875,26.878015 39.6216875,26.4001483 39.1886208,26.0566817 L38.9347541,26.2433483 C39.3752875,26.5942817 39.9054208,27.0945483 40.1592875,27.415615 Z M45.6892427,27.3633483 L45.6892427,23.226815 C46.600176,23.7046817 47.6903093,24.369215 48.2503093,24.8022817 L48.481776,24.4737483 C47.876976,24.0257483 46.6823093,23.3313483 45.7564427,22.8758817 L45.6892427,22.9505483 L45.6892427,21.5393483 L48.9447093,21.5393483 L48.9447093,21.1809483 L42.3516427,21.1809483 L42.3516427,21.5393483 L45.3159093,21.5393483 L45.3159093,27.3633483 L45.6892427,27.3633483 Z M51.3685312,27.3782817 L51.3685312,21.4422817 L56.7146645,21.4422817 L56.7146645,26.8481483 C56.7146645,26.9825483 56.6623979,27.0198817 56.5279979,27.0273483 C56.4010645,27.034815 55.9455979,27.0422817 55.4303979,27.0273483 C55.4826645,27.124415 55.5498645,27.2737483 55.5722645,27.3782817 C56.2293312,27.3782817 56.5877312,27.370815 56.7967979,27.3110817 C56.9909312,27.2438817 57.0730645,27.124415 57.0730645,26.8406817 L57.0730645,21.098815 L51.0101312,21.098815 L51.0101312,27.3782817 L51.3685312,27.3782817 Z M51.8538645,26.430015 C52.3466645,25.914815 52.7498645,25.2726817 53.0709312,24.526015 C53.3397312,24.951615 53.5637312,25.354815 53.7279979,25.6758817 L53.9893312,25.466815 C53.8175979,25.1009483 53.5338645,24.6305483 53.2127979,24.1526817 C53.4442645,23.5329483 53.6159979,22.846015 53.7578645,22.106815 L53.4143979,22.062015 C53.3023979,22.6817483 53.1605312,23.2641483 52.9813312,23.809215 C52.6751979,23.361215 52.3317312,22.9057483 52.0181312,22.510015 L51.7791979,22.689215 C52.1301312,23.1297483 52.5034645,23.6673483 52.8469312,24.1825483 C52.5333312,24.996415 52.1151979,25.6982817 51.5626645,26.206015 C51.6447979,26.2582817 51.7941312,26.3777483 51.8538645,26.430015 Z M54.0042645,26.474815 C54.5194645,25.9745483 54.9301312,25.332415 55.2362645,24.5782817 C55.5349312,25.0710817 55.7887979,25.5414817 55.9605312,25.9222817 L56.2367979,25.735615 C56.0575979,25.310015 55.7514645,24.7574817 55.3855979,24.190015 C55.6095979,23.5702817 55.7738645,22.8833483 55.9082645,22.129215 L55.5797312,22.084415 C55.4751979,22.7190817 55.3407979,23.3014817 55.1615979,23.8465483 C54.8629312,23.383615 54.5343979,22.9281483 54.2207979,22.5249483 L53.9594645,22.6966817 C54.3103979,23.1521483 54.6837312,23.697215 55.0197312,24.234815 C54.7061312,25.0561483 54.2805312,25.7505483 53.7130645,26.2657483 C53.8026645,26.3105483 53.9370645,26.4225483 54.0042645,26.474815 Z M62.5582197,27.3857483 L62.5582197,27.034815 L65.0894197,27.034815 L65.0894197,27.3558817 L65.4478197,27.3558817 L65.4478197,24.2198817 L63.8126197,24.2198817 L63.8126197,22.622015 L65.7987531,22.622015 L65.7987531,22.2785483 L63.8126197,22.2785483 L63.8126197,20.628415 L63.4467531,20.628415 L63.4467531,24.2198817 L62.2072864,24.2198817 L62.2072864,27.3857483 L62.5582197,27.3857483 Z M60.5944864,21.927615 L60.9230197,21.8006817 C60.8184864,21.4945483 60.5944864,21.0241483 60.3704864,20.673215 L60.0568864,20.785215 C60.2734197,21.1361483 60.4974197,21.614015 60.5944864,21.927615 Z M62.0056864,22.4278817 L62.0056864,22.0918817 L59.1683531,22.0918817 L59.1683531,22.4278817 L62.0056864,22.4278817 Z M59.1683531,26.609215 C59.9299531,26.407615 60.9976864,26.1238817 62.0056864,25.8550817 L61.9683531,25.5265483 C61.6547531,25.6086817 61.3486197,25.6833483 61.0499531,25.758015 C61.2440864,24.9366817 61.4606197,23.6897483 61.6099531,22.778815 L61.2515531,22.7041483 C61.1470197,23.6449483 60.9230197,25.0337483 60.7288864,25.8401483 C60.0942197,26.004415 59.5118197,26.1462817 59.0712864,26.250815 L59.1683531,26.609215 Z M59.8926197,25.646015 L60.2062197,25.601215 C60.1614197,24.8246817 59.9896864,23.697215 59.7955531,22.8161483 L59.4894197,22.868415 C59.6835531,23.7494817 59.8478197,24.884415 59.8926197,25.646015 Z M65.0894197,26.6913483 L62.5582197,26.6913483 L62.5582197,24.5633483 L65.0894197,24.5633483 L65.0894197,26.6913483 Z" id="视觉中国旗下网站" fill-rule="nonzero"></path>
                    </g>
                </g>
            </g>
        </g>
    </g>
</svg>