<?xml version="1.0" encoding="UTF-8"?>
<svg width="12px" height="12px" viewBox="0 0 12 12" version="1.1" xmlns="http://www.w3.org/2000/svg" xmlns:xlink="http://www.w3.org/1999/xlink">
    <!-- Generator: Sketch 49 (51002) - http://www.bohemiancoding.com/sketch -->
    <title>icon/sex</title>
    <desc>Created with Sketch.</desc>
    <defs></defs>
    <g id="个人中心" stroke="none" stroke-width="1" fill="none" fill-rule="evenodd" fill-opacity="0.5">
        <g id="个人中心-性别" transform="translate(-708.000000, -797.000000)" fill="#0099E5">
            <g id="icon/male" transform="translate(708.000000, 797.000000)">
                <g id="Page-1">
                    <path d="M2.24851815,9.75134989 C0.982488429,8.4853373 0.982488429,6.42425063 2.24851815,5.15823804 C3.51454787,3.89222546 5.57566244,3.89222546 6.84169215,5.15823804 C8.10837145,6.42425063 8.10837145,8.4853373 6.84169215,9.75134989 C5.57566244,11.018012 3.51454787,11.018012 2.24851815,9.75134989 M8.18307305,4.73536775 L10.7008417,2.21763313 L10.7008417,5.0452128 L12,5.0452128 L12,0 L6.9553685,0.000649570336 L6.9553685,1.29914067 L9.78233686,1.29914067 L7.26456817,3.8168753 C5.48472136,2.48525611 2.94616613,2.62296502 1.33001326,4.23974558 C-0.443337754,6.01242303 -0.443337754,8.8971649 1.33001326,10.6704919 C3.1027147,12.4431694 5.9874956,12.4431694 7.76019704,10.6704919 C9.37699949,9.05371135 9.51471026,6.51519047 8.18307305,4.73536775" id="Fill-1"></path>
                </g>
            </g>
        </g>
    </g>
</svg>