<?xml version="1.0" encoding="utf-8"?>
<!-- Generator: Adobe Illustrator 18.0.0, SVG Export Plug-In . SVG Version: 6.00 Build 0)  -->
<!DOCTYPE svg PUBLIC "-//W3C//DTD SVG 1.1//EN" "http://www.w3.org/Graphics/SVG/1.1/DTD/svg11.dtd">
<svg version="1.1" id="layer_1" xmlns="http://www.w3.org/2000/svg" xmlns:xlink="http://www.w3.org/1999/xlink" x="0px" y="0px"
	 viewBox="8 8 24 24" enable-background="new 8 8 24 24" xml:space="preserve">
<path fill="#A7A7A7" d="M32,28.9c-0.4-1.1-1.7-1.3-2.8-1.8c-1.2-0.5-2.6-1.1-3.8-1.6c-0.4-0.1-0.7-0.2-1-0.3c-0.4-0.3-0.8-1.2-1-1.7
	c-0.2-0.1-0.4-0.1-0.7-0.1c0.1-0.7,0.5-0.8,0.7-1.3c0.2-0.5,0-1.1,0.2-1.6c0.2-0.3,0.5-0.3,0.7-0.6c0.2-0.2,0.3-0.7,0.4-1
	c0.1-0.5,0.2-1.3-0.1-1.9c-0.1-0.3-0.2-0.4-0.3-0.7c-0.1-0.5,0.1-2,0.1-2.3c0-0.8,0-0.9-0.2-1.7c0,0-0.2-0.7-0.7-1l-0.8-0.1
	l-0.5-0.4c-1.9-1.2-4-0.4-5.1,0.1c-1.6,0.5-2.6,2.1-1.9,5.4c0.1,0.5-0.3,0.8-0.3,1.1c0.1,0.7,0.1,2.3,0.7,2.7
	c0.1,0.1,0.5,0.2,0.5,0.1c0.1,0.7,0.1,1.3,0.2,2c0.2,0.4,0.5,0.5,0.7,1.1l-0.5,0.1c-0.2,0.5-0.6,1.4-1,1.7c-0.4,0.1-0.7,0.2-1,0.3
	c-1.2,0.5-2.5,1.1-3.8,1.6c-1.1,0.5-2.4,0.7-2.8,1.8c0,0.2,0,0.6,0,1h24C32,29.5,32,29.1,32,28.9z"/>
</svg>
