<?xml version="1.0" encoding="UTF-8"?>
<svg width="24px" height="24px" viewBox="0 0 24 24" version="1.1" xmlns="http://www.w3.org/2000/svg" xmlns:xlink="http://www.w3.org/1999/xlink">
    <title>画板</title>
    <g id="画板" stroke="none" stroke-width="1" fill="none" fill-rule="evenodd">
        <g id="Icon/Upload">
            <g id="Upload_2">
                <path d="M12.66,4.29 C12.296,3.9 11.704,3.9 11.34,4.29 L4.303,11.62 C4.05,11.86 3.944,12.23 4.028,12.58 C4.112,12.93 4.372,13.2 4.704,13.28 C5.037,13.37 5.389,13.26 5.621,13 L11.066,7.32 L11.066,19.03 C11.066,19.56 11.484,20 12,20 C12.516,20 12.934,19.56 12.934,19.03 L12.934,7.32 L18.379,13 C18.611,13.26 18.963,13.37 19.296,13.28 C19.628,13.2 19.888,12.93 19.972,12.58 C20.056,12.23 19.95,11.86 19.697,11.62 L12.66,4.29 Z" id="Icon_20" fill="#222222"></path>
                <rect id="矩形" x="0" y="0" width="24" height="24"></rect>
            </g>
        </g>
    </g>
</svg>