<?xml version="1.0" encoding="UTF-8" standalone="no"?>
<svg xmlns="http://www.w3.org/2000/svg" class="icon" viewBox="0 0 22 22" x="0px" y="0px" version="1.1"><g><g><path class="xin" fill="transparent" stroke="#fff" stroke-width="1px" stroke-dasharray="150" stroke-linejoin="round" d="M 8.3 9.5 c 1.1 -1.1 1.8 -1.7 2.4 -2.1 c 3.1 -2.5 5.6 -1.4 5.6 -1.4 C 12 1.6 5.8 6.9 5.8 6.9 l -2 -2 l -1.6 8.4 l 8.4 -1.6 L 8.3 9.5 Z" /></g><g><path fill="transparent" stroke="#fff" stroke-width="1px" stroke-dasharray="150" stroke-linejoin="round" class="xin" d="M 13.5 12.3 l 2.2 2.2 c -1.1 1.1 -1.8 1.7 -2.4 2.1 c -3.1 2.5 -5.6 1.4 -5.6 1.4 c 4.3 4.3 10.5 -1.1 10.5 -1.1 l 2 2 l 1.6 -8.4 L 13.5 12.3 Z" /></g></g><g><g><path fill="#fff" class="bian" d="M 2.1 13.7 c -0.1 0 -0.2 0 -0.3 -0.1 c -0.1 -0.1 -0.2 -0.3 -0.1 -0.4 l 1.6 -8.4 c 0 -0.2 0.2 -0.3 0.3 -0.3 c 0.2 0 0.3 0 0.4 0.1 l 1.7 1.7 c 1.4 -1 6.8 -4.7 10.8 -0.8 c 0.2 0.2 0.2 0.4 0.1 0.6 c -0.1 0.2 -0.3 0.2 -0.5 0.2 c -0.1 0 -2.3 -0.9 -5.2 1.4 c -0.6 0.5 -1.2 1 -2 1.8 l 1.9 1.9 c 0.1 0.1 0.2 0.3 0.1 0.4 c 0 0.2 -0.2 0.3 -0.3 0.3 L 2.1 13.7 C 2.2 13.7 2.1 13.7 2.1 13.7 Z M 4 5.8 l -1.3 6.9 l 6.9 -1.3 L 8 9.8 C 7.8 9.6 7.8 9.3 8 9.1 C 8.9 8.2 9.7 7.5 10.4 7 c 1.7 -1.3 3.2 -1.7 4.2 -1.7 c -3.8 -1.9 -8.5 2 -8.6 2.1 c -0.2 0.2 -0.4 0.1 -0.6 0 L 4 5.8 Z" /></g><g><path fill="#fff" class="bian" d="M 11.6 20.2 c -1.4 0 -2.9 -0.5 -4.2 -1.8 c -0.2 -0.2 -0.2 -0.4 -0.1 -0.6 s 0.3 -0.2 0.5 -0.2 c 0.1 0 2.3 0.9 5.2 -1.4 c 0.6 -0.5 1.2 -1 2 -1.8 l -1.9 -1.9 c -0.1 -0.1 -0.2 -0.3 -0.1 -0.4 c 0 -0.2 0.2 -0.3 0.3 -0.3 l 8.4 -1.6 c 0.1 0 0.3 0 0.4 0.1 c 0.1 0.1 0.2 0.3 0.1 0.4 l -1.6 8.4 c 0 0.2 -0.2 0.3 -0.3 0.3 c -0.2 0 -0.3 0 -0.4 -0.1 l -1.7 -1.7 C 17.3 18.4 14.5 20.2 11.6 20.2 Z M 9.4 18.8 c 3.8 2 8.4 -1.9 8.6 -2.1 c 0.2 -0.2 0.4 -0.1 0.6 0 l 1.4 1.4 l 1.3 -6.9 l -6.9 1.3 l 1.6 1.6 c 0.2 0.2 0.2 0.5 0 0.6 c -0.9 0.9 -1.7 1.6 -2.4 2.2 C 11.9 18.3 10.4 18.7 9.4 18.8 Z" /></g></g></svg>